<?xml version="1.0" encoding="iso-8859-1"?>
<!-- Generator: Adobe Illustrator 19.0.0, SVG Export Plug-In . SVG Version: 6.00 Build 0)  -->
<svg version="1.1" id="Layer_1" xmlns="http://www.w3.org/2000/svg" xmlns:xlink="http://www.w3.org/1999/xlink" x="0px" y="0px"
	 viewBox="0 0 511.997 511.997" style="enable-background:new 0 0 511.997 511.997;" xml:space="preserve">
<rect x="102.877" y="440.832" style="fill:#575759;" width="33.391" height="71.165"/>
<rect x="375.728" y="440.832" style="fill:#474748;" width="33.391" height="71.165"/>
<rect x="57.008" y="16.696" style="fill:#69351D;" width="397.991" height="283.826"/>
<rect x="57.008" y="298.919" style="fill:#C17644;" width="397.991" height="141.913"/>
<rect x="255.998" y="16.696" style="fill:#542C19;" width="198.99" height="283.826"/>
<rect x="100.172" y="121.444" style="fill:#79D5DE;" width="91.481" height="23.253"/>
<rect x="105.515" y="98.193" style="fill:#D9BA2C;" width="91.186" height="23.253"/>
<rect x="100.172" y="74.941" style="fill:#982959;" width="93.83" height="23.253"/>
<rect x="201.242" y="46.575" transform="matrix(-0.9449 0.3273 -0.3273 -0.9449 444.6112 112.1545)" style="fill:#C74B21;" width="23.252" height="93.828"/>
<rect x="401.807" y="191.967" style="fill:#97C655;" width="23.253" height="93.83"/>
<rect x="378.556" y="197.298" style="fill:#C74B21;" width="23.253" height="88.498"/>
<rect x="355.304" y="191.967" style="fill:#D9BA2C;" width="23.253" height="93.83"/>
<rect x="317.346" y="185.582" transform="matrix(0.9449 0.3273 -0.3273 0.9449 94.2179 -94.8685)" style="fill:#982959;" width="23.252" height="93.828"/>
<rect x="255.998" y="298.919" style="fill:#9A5F38;" width="198.99" height="141.913"/>
<path style="fill:#954927;" d="M40.306,0v457.531h431.383V0H40.306z M438.299,33.391V141.38H73.697V33.391H438.299z
	 M438.299,174.771V282.76H73.697V174.771H438.299z M73.697,424.14V316.151h364.601V424.14H73.697z"/>
<polygon style="fill:#783C21;" points="471.691,0 255.998,0 255.998,33.391 438.299,33.391 438.299,141.38 255.998,141.38 
	255.998,174.771 438.299,174.771 438.299,282.76 255.998,282.76 255.998,316.151 438.299,316.151 438.299,424.14 255.998,424.14 
	255.998,457.531 471.691,457.531 "/>
<circle style="fill:#2A2A2A;" cx="255.998" cy="370.677" r="19.179"/>
<path d="M275.177,370.678c0,10.592-8.586,19.179-19.179,19.179c0-8.655,0-23.618,0-38.357
	C266.59,351.5,275.177,360.086,275.177,370.678z"/>
<g>
</g>
<g>
</g>
<g>
</g>
<g>
</g>
<g>
</g>
<g>
</g>
<g>
</g>
<g>
</g>
<g>
</g>
<g>
</g>
<g>
</g>
<g>
</g>
<g>
</g>
<g>
</g>
<g>
</g>
</svg>
