<?xml version="1.0" encoding="UTF-8" standalone="no"?>
<!-- Created with Inkscape (http://www.inkscape.org/) -->

<svg
   xmlns:dc="http://purl.org/dc/elements/1.1/"
   xmlns:cc="http://creativecommons.org/ns#"
   xmlns:rdf="http://www.w3.org/1999/02/22-rdf-syntax-ns#"
   xmlns:svg="http://www.w3.org/2000/svg"
   xmlns="http://www.w3.org/2000/svg"
   xmlns:sodipodi="http://sodipodi.sourceforge.net/DTD/sodipodi-0.dtd"
   xmlns:inkscape="http://www.inkscape.org/namespaces/inkscape"
   id="svg3894"
   sodipodi:docname="etchasketch.svg"
   viewBox="0 0 956.46682 777.98961"
   version="1.1"
   inkscape:version="0.91 r13725"
   width="956.46686"
   height="777.98962">
  <defs
     id="defs6245" />
  <sodipodi:namedview
     id="base"
     bordercolor="#666666"
     inkscape:pageshadow="2"
     inkscape:window-y="1"
     pagecolor="#ffffff"
     inkscape:window-height="1035"
     inkscape:window-maximized="1"
     inkscape:zoom="0.5759723"
     inkscape:window-x="4"
     showgrid="false"
     borderopacity="1.0"
     inkscape:current-layer="layer1"
     inkscape:cx="267.91687"
     inkscape:cy="230.72715"
     inkscape:window-width="1916"
     inkscape:pageopacity="0.0"
     inkscape:document-units="px"
     fit-margin-top="0"
     fit-margin-left="0"
     fit-margin-right="0"
     fit-margin-bottom="0" />
  <g
     id="layer1"
     inkscape:label="Layer 1"
     inkscape:groupmode="layer"
     transform="translate(307.20258,14.862478)">
    <g
       id="g6820">
      <g
         id="g6806">
        <path
           style="fill:#e81313;fill-opacity:1;fill-rule:evenodd;stroke:#000000;stroke-width:7;stroke-linecap:butt;stroke-linejoin:miter;stroke-miterlimit:4;stroke-dasharray:none;stroke-opacity:1"
           d="m -215.28813,732.94021 -46.87726,20.83434 -10.41717,-756.9808542 888.93165,59.0306172 20.83434,26.042919 -8.68098,241.331048 12.15336,236.12247 -10.41716,74.65637 -772.60661,90.28212 z"
           id="path6804"
           inkscape:connector-curvature="0" />
        <path
           style="fill:#e5e0e0;fill-opacity:1;fill-rule:evenodd;stroke:none;stroke-width:1px;stroke-linecap:butt;stroke-linejoin:miter;stroke-opacity:1"
           d="m -157.99371,109.64635 12.15336,418.4229 39.93248,3.47239 399.32476,-13.88956 277.79114,-17.36194 5.20858,-381.96282 -605.931919,-19.098142 z"
           id="path6787"
           inkscape:connector-curvature="0" />
        <path
           id="path3844"
           style="fill:#d40000;stroke:#000000;stroke-width:7;stroke-linecap:round;stroke-linejoin:round;stroke-miterlimit:4;stroke-dasharray:none"
           d="M -226.12782,24.056074 -230.78221,741.17291 645.76427,636.46021 638.83311,75.425237 Z M -75.163668,124.79187 534.59271,161.05681 c 17.2323,1.31706 25.64655,7.21964 25.25439,22.36581 2.34984,99.43733 -5.27455,209.39871 -2.92471,308.82863 1.56662,17.77969 -15.34317,22.97205 -25.85131,22.47845 -203.6628,14.4876 -411.99333,30.23512 -615.638774,44.72272 -18.407216,-0.98778 -32.124136,-10.89045 -30.557226,-24.71963 1.56657,-131.04651 -0.40301,-254.17775 1.16357,-385.22426 -0.86805,-15.47923 17.853678,-22.34208 38.802992,-24.71963 z"
           inkscape:export-ydpi="72"
           sodipodi:nodetypes="cccccccccccccc"
           inkscape:export-filename="C:\Raster\Web_pics\etch2.png"
           inkscape:connector-curvature="0"
           inkscape:export-xdpi="72" />
        <path
           id="path3846"
           style="fill:#d40000;stroke:#000000;stroke-width:7;stroke-linecap:round;stroke-linejoin:round;stroke-miterlimit:4;stroke-dasharray:none"
           d="m -303.70258,749.05852 c 19.27309,13.31099 50.19125,15.51629 59.05649,-1.93434 l 9.25097,-730.961135 869.58825,53.340567 C 630.31578,47.871527 623.16806,48.590422 589.85479,47.91303 l -891.92054,-59.275532 z"
           inkscape:export-ydpi="72"
           sodipodi:nodetypes="ccccccc"
           inkscape:export-filename="C:\Raster\Web_pics\etch2.png"
           inkscape:connector-curvature="0"
           inkscape:export-xdpi="72" />
        <path
           id="path3848"
           style="fill:#d40000;stroke:#000000;stroke-width:7;stroke-linecap:round;stroke-linejoin:round;stroke-miterlimit:4;stroke-dasharray:none"
           d="m 536.55351,169.18404 c 9.06739,-3.03122 14.38775,0.43614 16.32946,11.97324 1.54186,102.07131 -4.28391,208.98368 -2.74217,311.06684 1.86918,10.07759 -5.25615,15.26579 -17.2873,17.65964 -201.97963,13.17061 -400.97469,28.23851 -602.954316,41.40986 -25.464357,2.57468 -37.647334,-9.68789 -36.946304,-21.08217 209.684,-10.53649 428.46057,-25.59564 638.14457,-36.13154 1.54173,-106.68113 3.90963,-218.20332 5.45154,-324.89632 z"
           inkscape:export-ydpi="72"
           sodipodi:nodetypes="cccccccc"
           inkscape:export-filename="C:\Raster\Web_pics\etch2.png"
           inkscape:connector-curvature="0"
           inkscape:export-xdpi="72" />
        <path
           id="path3850"
           style="color:#000000;fill:#ffffff;fill-rule:evenodd;stroke:#000000;stroke-width:7;stroke-linecap:round;stroke-linejoin:round;stroke-miterlimit:4;stroke-dasharray:none"
           d="m 560.84659,545.12935 c -10.8715,1.17878 -27.15967,17.81824 -27.15967,41.26905 0,23.45082 16.74765,36.9705 28.53917,38.93598 3.7571,0.626 11.2123,2.57898 14.72265,1.53888 -17.01071,-5.03464 -29.48486,-21.81737 -29.48486,-41.26016 0,-19.44131 12.93624,-37.77092 29.94469,-42.80763 -3.51156,-1.04098 -12.76341,1.91285 -16.5625,2.32477 z"
           inkscape:export-ydpi="72"
           sodipodi:nodetypes="ssscscs"
           inkscape:export-filename="C:\Raster\Web_pics\etch2.png"
           inkscape:connector-curvature="0"
           inkscape:export-xdpi="72" />
        <path
           id="path3852"
           style="color:#000000;fill:#ffffff;fill-rule:evenodd;stroke:#000000;stroke-width:7;stroke-linecap:round;stroke-linejoin:round;stroke-miterlimit:4;stroke-dasharray:none"
           d="m 593.52079,543.15795 c -22.37046,0 -40.52781,18.99663 -40.52781,42.44744 0,23.45082 18.15561,42.47117 40.52781,42.47117 22.37045,0 40.4983,-19.02183 40.4983,-42.47117 0,-23.45081 -18.12785,-42.44744 -40.4983,-42.44744 z m 7.74116,10.40516 c 17.06086,0 30.90774,14.49886 30.90774,32.38291 0,17.88404 -13.84688,32.38291 -30.90774,32.38291 -17.06086,0 -30.87998,-14.49887 -30.87998,-32.38291 0,-17.88405 13.81843,-32.38291 30.87998,-32.38291 z"
           inkscape:export-ydpi="72"
           inkscape:export-filename="C:\Raster\Web_pics\etch2.png"
           inkscape:connector-curvature="0"
           inkscape:export-xdpi="72" />
        <ellipse
           id="path3854"
           style="color:#000000;fill:#ffffff;fill-rule:evenodd;stroke:#000000;stroke-width:7;stroke-linecap:round;stroke-linejoin:round;stroke-miterlimit:4;stroke-dasharray:none"
           inkscape:export-ydpi="72"
           inkscape:export-filename="C:\Raster\Web_pics\etch2.png"
           inkscape:export-xdpi="72"
           cx="601.52966"
           cy="585.95154"
           rx="27.732512"
           ry="29.069656" />
        <path
           id="path3856"
           style="color:#000000;fill:#ffffff;fill-rule:evenodd;stroke:#000000;stroke-width:7;stroke-linecap:round;stroke-linejoin:round;stroke-miterlimit:4;stroke-dasharray:none"
           d="m -178.49603,613.8024 c -13.68291,1.4836 -34.1821,22.42658 -34.1821,51.94132 0,29.51474 21.07945,46.53107 35.91905,49.00348 4.72865,0.78786 14.11168,3.246 18.53042,1.93686 -21.40915,-6.33665 -37.10942,-27.46032 -37.10942,-51.92945 0,-24.46765 16.28157,-47.53901 37.68898,-53.87715 -4.4196,-1.31017 -16.06397,2.40749 -20.8452,2.92598 z"
           inkscape:export-ydpi="72"
           sodipodi:nodetypes="ssscscs"
           inkscape:export-filename="C:\Raster\Web_pics\etch2.png"
           inkscape:connector-curvature="0"
           inkscape:export-xdpi="72" />
        <path
           id="path3858"
           style="color:#000000;fill:#ffffff;fill-rule:evenodd;stroke:#000000;stroke-width:7;stroke-linecap:round;stroke-linejoin:round;stroke-miterlimit:4;stroke-dasharray:none"
           d="m -137.38866,611.32703 c -28.15569,0 -51.00854,23.91032 -51.00854,53.42506 0,29.51474 22.85112,53.4547 51.00854,53.4547 28.15568,0 50.972089,-23.93996 50.972089,-53.4547 0,-29.51474 -22.814679,-53.42506 -50.972089,-53.42506 z m 9.74308,13.09606 c 21.47335,0 38.90017,18.24808 38.90017,40.75618 0,22.50811 -17.42855,40.75619 -38.90017,40.75619 -21.47335,0 -38.86546,-18.24808 -38.86546,-40.75619 0,-22.5081 17.39211,-40.75618 38.86546,-40.75618 z"
           inkscape:export-ydpi="72"
           inkscape:export-filename="C:\Raster\Web_pics\etch2.png"
           inkscape:connector-curvature="0"
           inkscape:export-xdpi="72" />
        <ellipse
           id="path3860"
           style="color:#000000;fill:#ffffff;fill-rule:evenodd;stroke:#000000;stroke-width:7;stroke-linecap:round;stroke-linejoin:round;stroke-miterlimit:4;stroke-dasharray:none"
           inkscape:export-ydpi="72"
           inkscape:export-filename="C:\Raster\Web_pics\etch2.png"
           inkscape:export-xdpi="72"
           cx="-127.30277"
           cy="665.19208"
           rx="34.904243"
           ry="36.587517" />
        <path
           style="fill:none;fill-rule:evenodd;stroke:#000000;stroke-width:5;stroke-linecap:butt;stroke-linejoin:miter;stroke-miterlimit:4;stroke-dasharray:none;stroke-opacity:1"
           d="m 449.67441,465.56624 c 2.78864,0.68294 1.20971,-16.30899 1.73619,-17.36194 0.25882,-0.51764 1.7362,0.57873 1.7362,0 0,-2.82345 -3.25324,-0.43831 -1.7362,-3.47239 0.36602,-0.73205 1.53769,-0.94218 1.7362,-1.7362 0.42108,-1.68435 0,-3.47239 0,-5.20858 0,-1.15746 -0.36603,-2.37432 0,-3.47239 0.25881,-0.77645 1.47737,-0.95974 1.73619,-1.73619 0.36602,-1.09807 -0.36602,-2.37433 0,-3.47239 0.25882,-0.77645 1.73619,-0.91775 1.73619,-1.7362 0,-0.81845 -1.37017,-1.00415 -1.73619,-1.73619 -0.0969,-0.19379 -0.0969,-8.48719 0,-8.68098 0.36602,-0.73204 1.47738,-0.95974 1.73619,-1.73619 0.47932,-1.43795 -0.55205,-7.57685 0,-8.68097 1.3217,-2.64339 3.47239,-1.01659 3.47239,-5.20859 0,-4.62985 -5.349,2.01704 -1.73619,-5.20858 0.25882,-0.51763 1.47738,0.51763 1.73619,0 0.51764,-1.03527 0,-2.31493 0,-3.47239 0,-0.57873 0,2.31493 0,1.73619 0,-1.15746 0,-2.31492 0,-3.47239 0,-0.57873 -0.57873,-1.73619 0,-1.73619 0.57874,0 0.57874,1.73619 0,1.73619 -0.12742,0 0.15929,-4.89001 0,-5.20858 -0.36602,-0.73204 -1.47737,-0.95974 -1.73619,-1.73619 -0.36602,-1.09807 0,-2.31493 0,-3.47239 0,-0.57873 0,2.31492 0,1.73619 0,-1.15746 0,-2.31492 0,-3.47239 0,-0.57873 -0.57873,-1.73619 0,-1.73619 0.57873,0 0,2.31492 0,1.73619 0,-1.15746 0,-2.31492 0,-3.47239 0,-0.57873 0.40922,2.14542 0,1.7362 -0.91506,-0.91506 -0.57873,-2.89366 -1.7362,-3.47239 -0.73204,-0.36602 -1.73619,2.55464 -1.73619,1.73619 0,-4.50765 5.04616,-3.47239 -1.73619,-3.47239 -0.57874,0 1.73619,0.57874 1.73619,0 0,-0.81845 -1.2822,-1.0552 -1.73619,-1.73619 -0.008,-0.0124 -3.97557,-5.20858 0,-5.20858 0.57873,0 0.57873,1.73619 0,1.73619 -0.57874,0 0.40922,-1.32697 0,-1.73619 -0.40923,-0.40923 -1.32697,0.40922 -1.7362,0 -0.40922,-0.40923 0.40923,-1.32697 0,-1.7362 -1.06904,-1.06904 -6.38047,2.90808 0,-3.47239 0.40923,-0.40922 0.40923,2.14542 0,1.7362 -5.0965,-10.193 1.07261,-0.59995 -3.47239,-1.7362 -2.02434,-0.50608 -3.34223,-2.53921 -5.20858,-3.47239 -0.51764,-0.25881 -1.15747,0 -1.7362,0 -1.15746,0 -2.37432,0.36602 -3.47239,0 -0.77645,-0.25881 -0.94218,-1.53769 -1.73619,-1.73619 -1.68436,-0.42109 -3.56149,0.54903 -5.20858,0 -0.54904,-0.18301 0,-1.15747 0,-1.7362 -1.15747,-0.57873 -2.17831,-1.73619 -3.47239,-1.73619 -0.81845,0 1.73619,0.91774 1.73619,1.73619 0,0.57873 -1.15746,0 -1.73619,0 -0.57874,0 -1.15747,0 -1.7362,0 -1.15746,0 -2.50932,-0.64204 -3.47239,0 -1.07674,0.71783 -0.65945,2.75456 -1.73619,3.47239 -0.96307,0.64205 -2.37433,-0.36602 -3.47239,0 -0.77645,0.25882 -1.7362,0.91775 -1.7362,1.7362 0,0.57873 1.7362,-0.57873 1.7362,0 0,1.15746 -2.43712,-0.51764 -3.47239,0 -2.64338,1.32169 -1.01659,3.47239 -5.20858,3.47239 -0.57874,0 0.57873,-1.7362 0,-1.7362 -1.29409,0 -2.55734,0.82114 -3.47239,1.7362 -0.40923,0.40922 0.57873,1.73619 0,1.73619 -0.17685,0 0.91307,-8.77092 -3.47239,0 -0.36602,0.73204 2.55464,1.7362 1.73619,1.7362 -1.29408,0 -2.1783,-1.7362 -3.47239,-1.7362 -0.81845,0 2.10222,1.00415 1.7362,1.7362 -0.57873,1.15746 -2.17831,1.73619 -3.47239,1.73619 -3.03408,0 9.63984,-6.16746 1.73619,1.73619 -0.81845,0.81845 -2.31492,0 -3.47239,0 -0.57873,0 1.7362,-0.57873 1.7362,0 0,0.81845 -0.91775,1.7362 -1.7362,1.7362 -0.57873,0 0,-2.31493 0,-1.7362 0,1.15747 0.36603,2.37433 0,3.47239 -0.25881,0.77645 -1.73619,0.91775 -1.73619,1.7362 0,0.81845 1.37017,1.00415 1.73619,1.73619 0.25882,0.51764 0.57873,1.7362 0,1.7362 -0.57873,0 0,-2.31493 0,-1.7362 0,1.15747 0,2.31493 0,3.47239 0,0.57873 0,-2.31492 0,-1.73619 0,2.89366 0,5.78731 0,8.68097 0,0.57873 -0.57873,-1.73619 0,-1.73619 1.29409,0 2.89366,0.57873 3.47239,1.73619 0.36602,0.73204 -0.91774,1.7362 -1.73619,1.7362 -0.57873,0 -0.57873,-1.7362 0,-1.7362 1.29408,0 2.89366,0.57873 3.47239,1.7362 0.36602,0.73204 -0.91775,1.73619 -1.7362,1.73619 -0.57873,0 0,-2.31493 0,-1.73619 0,1.15746 -1.03526,2.95475 0,3.47238 1.15747,0.57874 2.55734,-2.65125 3.47239,-1.73619 0.91506,0.91505 -1.32697,2.24471 -1.73619,3.47239 -0.18301,0.54903 -0.40923,1.32697 0,1.73619 0.91505,0.91506 2.1783,1.7362 3.47239,1.7362 0.81845,0 -0.91775,-1.7362 -1.7362,-1.7362 -0.57873,0 0,1.15747 0,1.7362 0,0.57873 0,1.15746 0,1.73619 0,0.57873 -0.57873,1.7362 0,1.7362 0.81845,0 0.91775,-1.7362 1.7362,-1.7362 0.81845,0 1.73619,0.91775 1.73619,1.7362 0,0.57873 -1.32697,-0.40923 -1.73619,0 -0.40923,0.40922 0.57873,1.73619 0,1.73619 -0.57874,0 0,-2.31492 0,-1.73619 0,1.15746 0,2.31492 0,3.47239 0,0.57873 0.57873,-1.7362 0,-1.7362 -0.81845,0 -1.00415,1.37017 -1.7362,1.7362 -0.51763,0.25881 -1.15746,0 -1.73619,0 -0.57873,0 -1.7362,0.57873 -1.7362,0 0,-0.57873 2.31493,0 1.7362,0 -11.38172,0 6.17313,0 -5.20859,0 -0.57873,0 1.7362,-0.57873 1.7362,0 0,0.81845 -0.91775,1.73619 -1.7362,1.73619 -0.81845,0 -0.91774,-1.73619 -1.73619,-1.73619 -0.57873,0 0.40922,1.32697 0,1.73619 -0.40923,0.40923 -1.15746,0 -1.7362,0 -0.57873,0 -1.15746,0 -1.73619,0 -3.47239,0 -6.94478,0 -10.41717,0 -0.57873,0 1.7362,-0.57873 1.7362,0 0,0.81845 -0.91775,1.7362 -1.7362,1.7362 -0.81845,0 -0.95974,-1.47738 -1.73619,-1.7362 -3.39118,-1.13039 -3.97475,0.74619 -6.94478,1.7362 -1.12491,0.37497 -7.25955,0 -8.68097,0 -11.26374,0 -25.47382,0 -43.40487,0 -7.95597,0 -10.27026,0 -20.83434,0 -0.68634,0 -7.93947,0.37075 -8.68097,0 -5.75823,-2.87912 0,-1.2174 0,-1.7362 0,-1.29408 -1.32697,-2.24471 -1.73619,-3.47239 -0.36603,-1.09806 0,-2.31492 0,-3.47239 0,-2.89365 0,-5.78731 0,-8.68097 0,-1.73619 0.42109,-3.52423 0,-5.20858 -0.19851,-0.79402 -1.37018,-1.00415 -1.7362,-1.7362 -0.69448,-1.38895 0.69448,-3.81963 0,-5.20858 -0.25881,-0.51764 -1.55318,0.54903 -1.73619,0 -0.54904,-1.6471 0,-3.47239 0,-5.20859 0,-0.57873 0,2.31493 0,1.7362 0,-1.15746 0,-2.31493 0,-3.47239 0,-0.57873 0,2.31493 0,1.73619 0,-7.90441 0,-2.70822 0,-8.68097 0,-0.57873 0.57873,1.7362 0,1.7362 -0.57873,0 0,-1.15747 0,-1.7362 0,-0.57873 -0.57873,-1.73619 0,-1.73619 0.57873,0 -0.57873,1.73619 0,1.73619 0.81845,0 0.95974,-1.47738 1.73619,-1.73619 0.95713,-0.31905 8.94375,0 10.41717,0 5.78732,0 11.57463,0 17.36195,0 0.68634,0 7.93947,-0.37075 8.68097,0 0.73204,0.36602 1.00415,1.37017 1.73619,1.73619 0.51764,0.25882 1.15747,0 1.7362,0 1.73619,0 3.47239,0 5.20858,0 0.57873,0 -2.31492,0 -1.73619,0 0.50673,0 10.37916,-0.038 10.41717,0 0.57873,0.57873 -1.37018,1.00415 -1.7362,1.7362 -0.25882,0.51763 0,1.15746 0,1.73619 0,0.57873 -0.40922,1.32697 0,1.73619 0.40923,0.40923 1.32697,-0.40922 1.7362,0 0.40922,0.40923 0,1.15747 0,1.7362 0,2.31493 0,4.62985 0,6.94478 0,1.15746 0,2.31492 0,3.47239 0,0.57873 0.57873,1.73619 0,1.73619 -0.57874,0 0,-2.31492 0,-1.73619 0,2.31492 0,4.62985 0,6.94478 0,5.64327 0,8.74339 0,17.36194 0,0.57873 0,-2.31492 0,-1.73619 0,5.78731 0,11.57463 0,17.36194 0,0.57873 0,1.15747 0,1.7362 0,0.57873 0.57873,1.73619 0,1.73619 -0.57874,0 0,-2.31492 0,-1.73619 0,1.15746 0,2.31492 0,3.47239 0,0.57873 0,-2.31493 0,-1.7362 0,1.15747 0,2.31493 0,3.47239 0,0.57873 -0.57874,-1.73619 0,-1.73619 0.57873,0 0,1.15746 0,1.73619 0,0.57873 0.57873,1.7362 0,1.7362 -0.57874,0 0,-2.31493 0,-1.7362 0,1.15746 0,2.31493 0,3.47239 0,0.57873 0.40922,-1.32697 0,-1.73619 -0.40923,-0.40923 -1.15747,0 -1.7362,0 -0.57873,0 -1.15746,0 -1.73619,0 -1.15747,0 -2.37433,-0.36603 -3.47239,0 -0.77645,0.25881 -0.95975,1.47737 -1.7362,1.73619 -1.09806,0.36602 -2.31492,0 -3.47239,0 -2.31492,0 -4.62985,0 -6.94478,0 -10.99589,0 -21.99179,0 -32.98769,0 -27.92546,0 -66.02824,0 -88.54593,0 -1.15746,0 -2.31492,0 -3.47239,0 -0.57873,0 1.47738,0.51763 1.7362,0 0.51763,-1.03527 0,-2.31493 0,-3.47239 0,-0.57873 0.57873,1.7362 0,1.7362 -0.57873,0 0,-1.15747 0,-1.7362 0,-0.57873 0,-1.15746 0,-1.73619 0,-0.57873 0,-1.15747 0,-1.7362 0,-0.57873 -0.25882,-1.21856 0,-1.73619 0.36602,-0.73205 1.47737,-0.95975 1.73619,-1.7362 0.36602,-1.09806 0,-2.31492 0,-3.47239 0,-1.15746 0,-2.31492 0,-3.47239 0,-0.57873 0,2.31493 0,1.7362 0,-5.78732 0,-11.57463 0,-17.36195 0,-1.16758 0.2592,-11.11657 0,-12.15336 -0.1985,-0.79401 -1.47738,-0.95974 -1.73619,-1.73619 -0.91506,-2.74517 0.91505,-5.93581 0,-8.68098 -0.18301,-0.54903 -1.55319,0.54904 -1.7362,0 -0.54903,-1.6471 0.28543,-3.49601 0,-5.20858 -0.30087,-1.80521 -1.37728,-3.41401 -1.73619,-5.20858 -0.227,-1.13499 0,-2.31493 0,-3.47239 0,-4.05112 0,-8.10225 0,-12.15337 0,-5.20858 0,-10.41716 0,-15.62575 0,-0.57873 0,2.31493 0,1.7362 0,-1.15747 -0.36602,-2.37433 0,-3.47239 0.25881,-0.77645 1.53769,-0.94218 1.73619,-1.7362 0.42109,-1.68435 -0.54903,-3.56148 0,-5.20858 0.18301,-0.54903 1.55319,0.54903 1.7362,0 0.54903,-1.6471 0,-3.47239 0,-5.20858 0,-1.15747 0,-2.31493 0,-3.47239 0,-0.57874 -0.18301,-1.18717 0,-1.7362 0.40922,-1.22767 1.32697,-2.24471 1.73619,-3.47239 0.36602,-1.09806 0,-2.31492 0,-3.47239 0,-1.15746 0,-2.31492 0,-3.47239 0,-0.57873 -0.57873,-1.73619 0,-1.73619 4.41755,0 -0.89835,6.16746 1.7362,-1.7362 0.25881,-0.77645 1.15746,-1.15746 1.73619,-1.73619 0,-1.7362 -0.42109,-3.52423 0,-5.20858 0.1985,-0.79402 1.47738,-0.95975 1.7362,-1.7362 0.73204,-2.19613 -1.03527,-4.87424 0,-6.94478 2.31492,-4.62985 1.73619,5.20859 1.73619,-1.73619 0,-1.15747 0,-2.31493 0,-3.47239 0,-0.57873 -0.57873,-1.7362 0,-1.7362 0.57873,0 -0.57873,1.7362 0,1.7362 0.81845,0 1.00415,-1.37017 1.73619,-1.7362 0.51764,-0.25881 1.15747,0 1.7362,0 4.22798,0 5.71102,-0.28072 10.41717,1.7362 1.91793,0.82197 3.18424,2.9663 5.20858,3.47239 2.80726,0.70181 5.78732,0 8.68097,0 1.15747,0 2.34949,-0.28073 3.47239,0 1.25545,0.31386 2.27087,1.25558 3.47239,1.73619 1.69922,0.67969 3.44889,1.23343 5.20859,1.7362 2.29436,0.65553 4.59107,1.34391 6.94477,1.73619 1.14172,0.19029 2.37433,-0.36602 3.47239,0 2.45535,0.81845 4.39183,3.0469 6.94478,3.47239 1.27648,0.21275 2.21695,-1.42233 3.47239,-1.73619 1.12291,-0.28073 2.31493,0 3.47239,0 1.15746,0 2.31493,0 3.47239,0 3.47239,0 6.94478,0 10.41717,0 1.14054,0 6.53651,-0.20414 6.94478,0 0.51763,0.25881 -0.54904,1.55318 0,1.73619 1.04565,0.34855 12.39708,0 13.88955,0 1.7362,0 3.47239,0 5.20859,0 0.57873,0 1.73619,-0.57873 1.73619,0 0,0.57873 -2.31492,0 -1.73619,0 2.56202,0 5.26376,0 12.15336,0 3.47239,0 6.94478,0 10.41717,0 1.73619,0 3.48301,-0.19173 5.20858,0 5.90321,-1.7566 10.36271,2.59522 15.62575,3.47239 1.71257,0.28543 3.47239,0 5.20859,0 0.57873,0 1.32697,0.40923 1.73619,0 0.0558,-0.0558 0,-4.78751 0,-5.20858 0,-1.15747 -0.36602,-2.37433 0,-3.47239 0.25882,-0.77645 1.7362,-0.91775 1.7362,-1.7362 0,-1.29408 -2.14542,-2.24471 -1.7362,-3.47239 0.40923,-1.22767 3.06317,-0.50852 3.47239,-1.73619 0.40923,-1.22768 -1.73619,-2.17831 -1.73619,-3.47239 0,-0.81845 1.47737,-0.95975 1.73619,-1.7362 0.36602,-1.09806 0,-2.31492 0,-3.47238 0,-1.15747 0,-2.31493 0,-3.47239 0,-5.20859 0,-10.41717 0,-15.62576 0,-0.57873 0,-1.15746 0,-1.73619 0,-0.57873 -0.57873,-1.73619 0,-1.73619 0.57873,0 0,2.31492 0,1.73619 0,-1.15746 0,-2.31493 0,-3.47239 0,-0.57873 0,2.31493 0,1.7362 0,-1.7362 0,-3.47239 0,-5.20859 0,-0.57873 -0.57873,-1.73619 0,-1.73619 0.57873,0 0,2.31492 0,1.73619 0,-1.15746 0.51763,-2.43712 0,-3.47239 -0.25882,-0.51763 -1.15746,0 -1.73619,0 -1.7362,0 -3.47239,0 -5.20859,0 -0.57873,0 2.31493,0 1.7362,0 -3.1619,0 -7.38337,-0.37922 -10.41717,0 -2.92818,0.36602 -5.7528,1.37018 -8.68097,1.7362 -1.72279,0.21535 -3.47239,0 -5.20859,0 -6.94478,0 -13.88956,0 -20.83433,0 -72.92018,0 -145.84035,0 -218.760526,0 -0.578731,0 1.32697,-0.40923 1.736195,0 0.409225,0.40922 0,1.15746 0,1.73619 0,0.57873 0,1.15746 0,1.7362 0,5.78731 0,11.57463 0,17.36194 0,7.52351 0,15.04702 0,22.57053 0,1.7362 0,3.47239 0,5.20859 0,1.15746 0.366022,2.37432 0,3.47239 -0.258817,0.77645 -1.370173,1.00415 -1.736195,1.73619 -0.258817,0.51763 0,1.15746 0,1.73619 0,0.57874 0,1.15747 0,1.7362 0,3.47239 0,6.94478 0,10.41717 0,4.05112 0,8.10224 0,12.15336 0,0.57873 0,1.15746 0,1.73619 0,0.57874 0.517633,1.47738 0,1.7362 -1.035266,0.51763 -2.314926,0 -3.472389,0 -2.314926,0 -4.629852,0 -6.944779,0 -4.629852,0 -9.259704,0 -13.889557,0 -0.578731,0 2.14542,0.40922 1.736195,0 -0.915055,-0.91506 -2.893658,-0.57873 -3.472389,-1.7362 0.941148,-0.94114 2.587743,-1.76929 1.736194,-3.47238 -0.366022,-0.73205 -1.370172,-1.00416 -1.736194,-1.7362 -0.264192,-0.52838 0,-4.42667 0,-5.20858 0,-4.62986 0,-9.25971 0,-13.88956 0,-0.46192 -0.286711,-5.06523 0,-5.20858 1.035266,-0.51764 2.314926,0 3.472389,0 19.936707,0 -1.440316,-0.70182 15.625752,1.73619 1.718745,0.24554 3.472389,0 5.208583,0 1.736195,0.57873 3.414014,1.37728 5.208584,1.73619 8.680977,1.7362 -3.472389,-3.47238 10.417167,0 0.56145,0.14037 -0.54903,1.55319 0,1.7362 1.6471,0.54903 3.47239,0 5.20858,0 3.47239,0 6.94478,0 10.41717,0 0.57873,0 -2.31492,0 -1.73619,0 2.89366,0 5.78731,0 8.68097,0 0.57873,0 1.7362,-0.57873 1.7362,0 0,0.57873 -2.31493,0 -1.7362,0 1.15746,0 2.65394,0.81845 3.47239,0 0.57873,-0.57873 -1.47738,-0.95975 -1.73619,-1.7362 -0.36603,-1.09806 0,-2.31492 0,-3.47238 0,-0.57874 -0.40923,-1.32697 0,-1.7362 0.91505,-0.91505 3.06316,-0.50852 3.47238,-1.73619 -1.18801,-2.37603 -2.68948,-4.0849 -1.73619,-6.94478 0.51763,-1.5529 3.47239,-1.83549 3.47239,-3.47239 0,-6.29193 -3.90415,-3.9133 -1.7362,-10.41717 0.65986,-1.97957 3.12935,-3.15033 3.47239,-5.20858 0.30087,-1.80521 -1.73619,-3.37848 -1.73619,-5.20859 0,-0.12993 3.42961,-17.01972 3.47239,-17.36194 0.21535,-1.72279 -0.28543,-3.49601 0,-5.20859 0.30087,-1.80521 1.73619,-3.37847 1.73619,-5.20858 0,-1.83011 -1.73619,-3.37847 -1.73619,-5.20858 0,-1.29409 1.32697,-2.24472 1.73619,-3.47239 0.36325,-1.08973 0,-5.54708 0,-6.94478 0,-4.62985 0,-9.25971 0,-13.88956 0,-0.78191 -0.26419,-4.6802 0,-5.20858 0.36603,-0.73205 1.7362,-0.91775 1.7362,-1.7362 0,-0.81845 -1.7362,-0.91774 -1.7362,-1.73619 0,-1.29409 1.01837,-2.39565 1.7362,-3.47239 0.45399,-0.68099 1.73619,-0.91775 1.73619,-1.7362 0,-0.57873 -1.47738,0.51764 -1.73619,0 -0.51764,-1.03526 -1.03527,-2.95475 0,-3.47239 1.15746,-0.57873 2.31492,1.15747 3.47239,1.7362 1.15746,0.57873 2.27086,1.25558 3.47239,1.73619 1.69921,0.67969 3.41401,1.37728 5.20858,1.7362 2.78236,0.55647 5.89861,-0.55647 8.68097,0 1.26896,0.25379 2.19592,1.52345 3.47239,1.73619 2.28343,0.38057 4.64773,-0.28713 6.94478,0 2.36775,0.29597 4.62985,1.15747 6.94478,1.7362 3.47239,0.57873 6.91134,1.41748 10.41717,1.73619 4.03448,0.36677 8.10224,0 12.15336,0 8.10224,0 16.20448,0 24.30672,0 5.20859,0 10.41717,0 15.62576,0 0.57873,0 1.15746,0 1.73619,0 0.57873,0 1.7362,-0.57873 1.7362,0 0,0.57873 -2.31493,0 -1.7362,0 3.27948,0 5.01567,0 1.7362,0"
           id="path6789"
           inkscape:connector-curvature="0" />
      </g>
    </g>
  </g>
  <metadata
     id="metadata6243">
    <rdf:RDF>
      <cc:Work>
        <dc:format>image/svg+xml</dc:format>
        <dc:type
           rdf:resource="http://purl.org/dc/dcmitype/StillImage" />
        <cc:license
           rdf:resource="http://creativecommons.org/publicdomain/zero/1.0/" />
        <dc:publisher>
          <cc:Agent
             rdf:about="http://openclipart.org/">
            <dc:title>Openclipart</dc:title>
          </cc:Agent>
        </dc:publisher>
        <dc:title>status quo</dc:title>
        <dc:date>2012-03-24T22:55:44</dc:date>
        <dc:description />
        <dc:source>https://openclipart.org/detail/169111/status-quo-by-raker-tooth</dc:source>
        <dc:creator>
          <cc:Agent>
            <dc:title>Raker Tooth</dc:title>
          </cc:Agent>
        </dc:creator>
        <dc:subject>
          <rdf:Bag>
            <rdf:li>candidate Romney</rdf:li>
            <rdf:li>etch a sketch</rdf:li>
            <rdf:li>re-elect president Obama</rdf:li>
          </rdf:Bag>
        </dc:subject>
      </cc:Work>
      <cc:License
         rdf:about="http://creativecommons.org/publicdomain/zero/1.0/">
        <cc:permits
           rdf:resource="http://creativecommons.org/ns#Reproduction" />
        <cc:permits
           rdf:resource="http://creativecommons.org/ns#Distribution" />
        <cc:permits
           rdf:resource="http://creativecommons.org/ns#DerivativeWorks" />
      </cc:License>
    </rdf:RDF>
  </metadata>
</svg>
