<?xml version="1.0" encoding="utf-8"?><!DOCTYPE svg PUBLIC "-//W3C//DTD SVG 1.1//EN" "http://www.w3.org/Graphics/SVG/1.1/DTD/svg11.dtd"><svg xmlns="http://www.w3.org/2000/svg" xmlns:xlink="http://www.w3.org/1999/xlink" id="preview" width="600" height="600" viewBox="0 0 600 600" xunitlength="47" yunitlength="47" xmin="-5" xmax="5" ymin="-5" ymax="5" ox="275" oy="275"><defs><style type="text/css">@import url("http://cdnjs.cloudflare.com/ajax/libs/KaTeX/0.2.0/katex.min.css")</style></defs><path d=" M275,90 275,560 M322,90 322,560 M369,90 369,560 M416,90 416,560 M463,90 463,560 M510,90 510,560 M228,90 228,560 M181,90 181,560 M134,90 134,560 M87,90 87,560 M40,90 40,560 M40,325 510,325 M40,372 510,372 M40,419 510,419 M40,466 510,466 M40,513 510,513 M40,560 510,560 M40,278 510,278 M40,231 510,231 M40,184 510,184 M40,137 510,137 M40,90 510,90" stroke-width="1" stroke="grey" fill="none"></path><path d="M 524.4 317.8 L 546 325 L 524.4 332.2 L 528 325 z" stroke-width="1" stroke="black" fill="black"></path><path d="M 267.8 75.6 L 275 54 L 282.2 75.6 L 275 72 z" stroke-width="1" stroke="black" fill="black"></path><path d="M22,325 528,325 M275,72 275,578 M275,332.25 275,317.75 M322,332.25 322,317.75 M369,332.25 369,317.75 M416,332.25 416,317.75 M463,332.25 463,317.75 M510,332.25 510,317.75 M228,332.25 228,317.75 M181,332.25 181,317.75 M134,332.25 134,317.75 M87,332.25 87,317.75 M40,332.25 40,317.75 M282.25,325 267.75,325 M282.25,372 267.75,372 M282.25,419 267.75,419 M282.25,466 267.75,466 M282.25,513 267.75,513 M282.25,560 267.75,560 M282.25,278 267.75,278 M282.25,231 267.75,231 M282.25,184 267.75,184 M282.25,137 267.75,137 M282.25,90 267.75,90" stroke-width="2" stroke="black" fill="none"></path><text id="null" x="322" y="356" font-style="" font-family="KaTeX_Main, serif" font-size="29" font-weight="normal" text-anchor="middle" fill="black" stroke-width="0px">1</text><text id="null" x="369" y="356" font-style="" font-family="KaTeX_Main, serif" font-size="29" font-weight="normal" text-anchor="middle" fill="black" stroke-width="0px">2</text><text id="null" x="416" y="356" font-style="" font-family="KaTeX_Main, serif" font-size="29" font-weight="normal" text-anchor="middle" fill="black" stroke-width="0px">3</text><text id="null" x="463" y="356" font-style="" font-family="KaTeX_Main, serif" font-size="29" font-weight="normal" text-anchor="middle" fill="black" stroke-width="0px">4</text><text id="null" x="510" y="356" font-style="" font-family="KaTeX_Main, serif" font-size="29" font-weight="normal" text-anchor="middle" fill="black" stroke-width="0px">5</text><text id="null" x="228" y="356" font-style="" font-family="KaTeX_Main, serif" font-size="29" font-weight="normal" text-anchor="middle" fill="black" stroke-width="0px">-1</text><text id="null" x="181" y="356" font-style="" font-family="KaTeX_Main, serif" font-size="29" font-weight="normal" text-anchor="middle" fill="black" stroke-width="0px">-2</text><text id="null" x="134" y="356" font-style="" font-family="KaTeX_Main, serif" font-size="29" font-weight="normal" text-anchor="middle" fill="black" stroke-width="0px">-3</text><text id="null" x="87" y="356" font-style="" font-family="KaTeX_Main, serif" font-size="29" font-weight="normal" text-anchor="middle" fill="black" stroke-width="0px">-4</text><text id="null" x="40" y="356" font-style="" font-family="KaTeX_Main, serif" font-size="29" font-weight="normal" text-anchor="middle" fill="black" stroke-width="0px">-5</text><text id="null" x="263.333" y="287.666" font-style="" font-family="KaTeX_Main, serif" font-size="29" font-weight="normal" text-anchor="end" fill="black" stroke-width="0px">1</text><text id="null" x="263.333" y="240.666" font-style="" font-family="KaTeX_Main, serif" font-size="29" font-weight="normal" text-anchor="end" fill="black" stroke-width="0px">2</text><text id="null" x="263.333" y="193.666" font-style="" font-family="KaTeX_Main, serif" font-size="29" font-weight="normal" text-anchor="end" fill="black" stroke-width="0px">3</text><text id="null" x="263.333" y="146.666" font-style="" font-family="KaTeX_Main, serif" font-size="29" font-weight="normal" text-anchor="end" fill="black" stroke-width="0px">4</text><text id="null" x="263.333" y="99.666" font-style="" font-family="KaTeX_Main, serif" font-size="29" font-weight="normal" text-anchor="end" fill="black" stroke-width="0px">5</text><text id="null" x="263.333" y="381.666" font-style="" font-family="KaTeX_Main, serif" font-size="29" font-weight="normal" text-anchor="end" fill="black" stroke-width="0px">-1</text><text id="null" x="263.333" y="428.666" font-style="" font-family="KaTeX_Main, serif" font-size="29" font-weight="normal" text-anchor="end" fill="black" stroke-width="0px">-2</text><text id="null" x="263.333" y="475.666" font-style="" font-family="KaTeX_Main, serif" font-size="29" font-weight="normal" text-anchor="end" fill="black" stroke-width="0px">-3</text><text id="null" x="263.333" y="522.666" font-style="" font-family="KaTeX_Main, serif" font-size="29" font-weight="normal" text-anchor="end" fill="black" stroke-width="0px">-4</text><text id="null" x="263.333" y="569.666" font-style="" font-family="KaTeX_Main, serif" font-size="29" font-weight="normal" text-anchor="end" fill="black" stroke-width="0px">-5</text><text id="null" x="275" y="42.333" font-style="italic" font-family="KaTeX_Main, serif" font-size="29" font-weight="normal" text-anchor="middle" fill="black" stroke-width="0px">y</text><text id="null" x="557.666" y="334.666" font-style="italic" font-family="KaTeX_Main, serif" font-size="29" font-weight="normal" text-anchor="start" fill="black" stroke-width="0px">x</text><path id="null" d="M275,325 275.391,324.996 275.783,324.986 276.174,324.970 276.566,324.947 276.958,324.918 277.349,324.882 277.741,324.840 278.133,324.791 278.524,324.735 278.916,324.673 279.308,324.605 279.699,324.530 280.091,324.448 280.483,324.360 280.874,324.265 281.266,324.164 281.658,324.056 282.049,323.942 282.441,323.821 282.833,323.694 283.224,323.560 283.616,323.420 284.008,323.273 284.399,323.120 284.791,322.960 285.183,322.793 285.574,322.620 285.966,322.441 286.358,322.255 286.749,322.062 287.141,321.863 287.533,321.657 287.924,321.445 288.316,321.226 288.708,321.001 289.099,320.770 289.491,320.531 289.883,320.286 290.274,320.035 290.666,319.777 291.058,319.513 291.449,319.242 291.841,318.965 292.233,318.681 292.624,318.390 293.016,318.093 293.408,317.790 293.799,317.480 294.191,317.163 294.583,316.840 294.974,316.510 295.366,316.174 295.758,315.831 296.149,315.482 296.541,315.126 296.933,314.764 297.324,314.395 297.716,314.020 298.108,313.638 298.499,313.250 298.891,312.855 299.283,312.453 299.674,312.045 300.066,311.631 300.458,311.210 300.849,310.782 301.241,310.348 301.633,309.907 302.024,309.460 302.416,309.006 302.808,308.546 303.199,308.080 303.591,307.606 303.983,307.126 304.374,306.640 304.766,306.147 305.158,305.648 305.549,305.142 305.941,304.630 306.333,304.111 306.724,303.585 307.116,303.053 307.508,302.515 307.899,301.970 308.291,301.418 308.683,300.860 309.074,300.295 309.466,299.724 309.858,299.146 310.249,298.562 310.641,297.971 311.033,297.374 311.424,296.770 311.816,296.160 312.208,295.543 312.599,294.920 312.991,294.290 313.383,293.653 313.774,293.010 314.166,292.361 314.558,291.705 314.949,291.042 315.341,290.373 315.733,289.697 316.124,289.015 316.516,288.327 316.908,287.631 317.299,286.930 317.691,286.221 318.083,285.507 318.474,284.785 318.866,284.057 319.258,283.323 319.649,282.582 320.041,281.835 320.433,281.081 320.824,280.320 321.216,279.553 321.608,278.780 321.999,278.000 322.391,277.213 322.783,276.420 323.174,275.620 323.566,274.814 323.958,274.001 324.349,273.182 324.741,272.356 325.133,271.524 325.524,270.685 325.916,269.840 326.308,268.988 326.699,268.130 327.091,267.265 327.483,266.393 327.874,265.515 328.266,264.631 328.658,263.740 329.049,262.842 329.441,261.938 329.833,261.027 330.224,260.110 330.616,259.187 331.008,258.256 331.399,257.320 331.791,256.376 332.183,255.427 332.574,254.470 332.966,253.507 333.358,252.538 333.749,251.562 334.141,250.580 334.533,249.591 334.924,248.595 335.316,247.593 335.708,246.585 336.099,245.570 336.491,244.548 336.883,243.520 337.274,242.485 337.666,241.444 338.058,240.396 338.449,239.342 338.841,238.281 339.233,237.214 339.624,236.140 340.016,235.060 340.408,233.973 340.799,232.880 341.191,231.780 341.583,230.673 341.974,229.560 342.366,228.441 342.758,227.315 343.149,226.182 343.541,225.043 343.933,223.897 344.324,222.745 344.716,221.587 345.108,220.421 345.499,219.250 345.891,218.071 346.283,216.887 346.674,215.695 347.066,214.497 347.458,213.293 347.849,212.082 348.241,210.865 348.633,209.641 349.024,208.410 349.416,207.173 349.808,205.930 350.199,204.680 350.591,203.423 350.983,202.160 351.374,200.890 351.766,199.614 352.158,198.331 352.549,197.042 352.941,195.746 353.333,194.444 353.724,193.135 354.116,191.820 354.508,190.498 354.899,189.170 355.291,187.835 355.683,186.493 356.074,185.145 356.466,183.791 356.858,182.430 357.249,181.062 357.641,179.688 358.033,178.308 358.424,176.920 358.816,175.527 359.208,174.127 359.599,172.720 359.991,171.307 360.383,169.887 360.774,168.460 361.166,167.028 361.558,165.588 361.949,164.142 362.341,162.690 362.733,161.231 363.124,159.765 363.516,158.293 363.908,156.815 364.299,155.330 364.691,153.838 365.083,152.340 365.474,150.835 365.866,149.324 366.258,147.807 366.649,146.282 367.041,144.752 367.433,143.214 367.824,141.670 368.216,140.120 368.608,138.563 368.999,137.000 369.391,135.430 369.783,133.853 370.174,132.271 370.566,130.681 370.958,129.085 371.349,127.482 371.741,125.873 372.133,124.258 372.524,122.636 372.916,121.007 373.308,119.372 373.699,117.730 374.091,116.082 374.483,114.427 374.874,112.766 375.266,111.098 375.658,109.423 376.049,107.742 376.441,106.055 376.833,104.361 377.224,102.661 377.616,100.954 378.008,99.240 378.399,97.520 378.791,95.793 379.183,94.060 379.574,92.321 379.966,90.574 380.358,88.822 380.749,87.062 381.141,85.297 381.533,83.524 381.924,81.746 382.316,79.960 382.708,78.168 383.099,76.370 383.201,75.899 " stroke-width="5" stroke="black" fill="none"></path></svg>